<svg viewBox="0 0 1080 1080" fill="none" xmlns="http://www.w3.org/2000/svg">        <defs>    <filter id="filter" x="-20%" y="-20%" width="140%" height="140%" filterUnits="objectBoundingBox" primitiveUnits="userSpaceOnUse" color-interpolation-filters="linearRGB">      <feMorphology operator="dilate" radius="20 20" in="SourceAlpha" result="morphology"/>      <feFlood flood-color="#ffffff" flood-opacity="1" result="flood"/>      <feComposite in="flood" in2="morphology" operator="in" result="composite"/>      <feMerge result="merge">            <feMergeNode in="composite" result="mergeNode"/>        <feMergeNode in="SourceGraphic" result="mergeNode1"/>        </feMerge>    </filter>  </defs>        <g id="notion-avatar" filter="url(#filter)">          <g id="notion-avatar-face" fill="#ffffff">            <!-- Generator: Sketch 63.1 (92452) - https://sketch.com -->    <title>Face/ 14</title>    <desc>Created with Sketch.</desc>    <g id="Face/-14" stroke="none" stroke-width="1" fill-rule="evenodd" stroke-linecap="round" stroke-linejoin="round">        <path d="M532,379 C664.54834,379 772,486.45166 772,619 C772,642.160109 783.234546,656.244677 777.453024,678.979248 C763.583554,733.517917 758.701879,941.343666 598,909 C539.618945,897.249936 461,880 433,858 C405,836 342.170039,758.772836 320.189513,718.584987 C317.498129,718.859681 314.765451,719 312,719 C267.81722,719 232,683.18278 232,639 C232,599.134956 261.158843,566.080325 299.312086,560.00055 C325.599297,455.979213 419.809919,379 532,379 Z M295.858895,624.545187 L304.141105,655.454813" id="Path" stroke="#000000" stroke-width="24"/>    </g>      </g><g id="notion-avatar-nose">        <g id="Nose/ 12"><path id="Path" fill-rule="evenodd" clip-rule="evenodd" d="M648.516 575C648.516 575 659.222 580.698 667 589C673.643 596.091 676.296 606.295 680 617C683.578 627.342 695.556 636.07 695 644C692.29 682.626 644 684.16 644 684.16C644 684.16 696 684 700 643.855C701.005 633.771 688.451 626.971 684 617C679.168 606.177 677 594 669 588C660.881 581.911 648.516 575 648.516 575Z" fill="black" stroke="black" stroke-width="6" stroke-linecap="round" stroke-linejoin="round"/></g>      </g><g id="notion-avatar-mouth">            <title>Mouth/ 0</title>    <g id="Mouth/-0" stroke="none" stroke-width="1" fill="none" fill-rule="evenodd" stroke-linecap="round" stroke-linejoin="round">        <path d="M549,759 C576.33038,765.666667 599.663714,769 619,769 C638.336286,769 655.002953,765.666667 669,759" id="Path" stroke="#000000" stroke-width="16"/>    </g>      </g><g id="notion-avatar-eyes">            <title>Eyes/ 7</title>    <g id="Eyes/-7" stroke="none" stroke-width="1" fill="none" fill-rule="evenodd">        <path d="M570,516 C578.836556,516 586,526.745166 586,540 C586,553.254834 578.836556,564 570,564 C561.163444,564 554,553.254834 554,540 C554,526.745166 561.163444,516 570,516 Z M708,516 C716.836556,516 724,526.745166 724,540 C724,553.254834 716.836556,564 708,564 C699.163444,564 692,553.254834 692,540 C692,526.745166 699.163444,516 708,516 Z M568,527 C564.686292,527 562,529.686292 562,533 C562,536.313708 564.686292,539 568,539 C571.313708,539 574,536.313708 574,533 C574,529.686292 571.313708,527 568,527 Z M706,527 C702.686292,527 700,529.686292 700,533 C700,536.313708 702.686292,539 706,539 C709.313708,539 712,536.313708 712,533 C712,529.686292 709.313708,527 706,527 Z" id="Combined-Shape" fill="#000000"/>    </g>      </g><g id="notion-avatar-eyebrows">        <g id="Eyebrows/ 11"><g id="Group"><path id="Path" fill-rule="evenodd" clip-rule="evenodd" d="M682.541 491.005C682.541 491.005 728.644 489.216 741.813 495.149C754.982 501.082 753.21 511.484 753.21 511.484C753.21 511.484 746.419 503.992 737.34 499.348C728.26 494.703 682.541 491.005 682.541 491.005Z" fill="black" stroke="black" stroke-width="8" stroke-linecap="round" stroke-linejoin="round"/><path id="Path_2" fill-rule="evenodd" clip-rule="evenodd" d="M595.459 491.005C595.459 491.005 549.356 489.216 536.187 495.149C523.018 501.082 524.79 511.484 524.79 511.484C524.79 511.484 531.581 503.992 540.66 499.348C549.74 494.703 595.459 491.005 595.459 491.005Z" fill="black" stroke="black" stroke-width="8" stroke-linecap="round" stroke-linejoin="round"/></g></g>      </g><g id="notion-avatar-glasses">            <title>Glasses/ 0</title>    <g id="Glasses/-0" stroke="none" stroke-width="1" fill="none" fill-rule="evenodd"/>      </g><g id="notion-avatar-hair">        <g id="Hairstyle/ 45"><path id="Path" fill-rule="evenodd" clip-rule="evenodd" d="M292.971 564.825C277.873 567.272 258.567 554.108 246.937 532.237C233.584 507.123 235.409 480.039 251.014 471.742C252.305 471.055 253.651 470.519 255.04 470.126C243.353 453.821 242.471 429.447 254.565 408.5C260.569 398.1 268.904 390.048 278.219 384.817C275.44 369.838 277.642 354.211 285.597 340.432C293.987 325.9 307.357 315.882 322.718 311.056C323.667 302.497 326.329 294.076 330.847 286.25C343.211 264.836 366.387 253.224 390.812 253.583C398.178 228.269 419.208 210 444 210C454.193 210 463.75 213.088 471.982 218.483C484.406 205.889 502.217 198 522 198C543.277 198 562.272 207.126 574.741 221.414C585.992 214.179 599.274 210 613.5 210C654.093 210 687 244.026 687 286L686.998 286.645C689.603 286.22 692.277 286 695 286C723.167 286 746 309.505 746 338.5C746 347.535 743.783 356.037 739.878 363.461C761.167 393.857 753.207 421.37 716 446C694.607 460.162 604.369 465.353 550.694 460.999C511.12 457.789 428.105 430.958 412 428C404.393 426.603 415.06 436.603 444 458C409.921 485.157 392.711 504.618 392.37 516.385L392.365 516.739C392.365 528.233 383.925 572.725 367.044 650.214L366 655L328.117 564.825L292.971 564.825Z" fill="black" stroke="black" stroke-width="12" stroke-linecap="round" stroke-linejoin="round"/></g>      </g><g id="notion-avatar-accessories">            <title>Accessories/ 0</title>    <g id="Accessories/-0" stroke="none" stroke-width="1" fill="none" fill-rule="evenodd"/>      </g><g id="notion-avatar-details">            <title>Details/ 0</title>    <g id="Details/-0" stroke="none" stroke-width="1" fill="none" fill-rule="evenodd"/>      </g><g id="notion-avatar-beard">        <g id="Beard/ 16"><g id="Shape"><path fill-rule="evenodd" clip-rule="evenodd" d="M679 848L692 872L690.233 873.596C661.493 899.412 638.416 913.214 621 915C603.584 916.786 577.305 911.7 542.163 899.741L540 899L547 872C571 880 595 882 619 878C642.7 874.05 662.499 864.249 678.398 848.597L679 848ZM645 789C639 793 634.916 796.484 632.747 799.452L632.158 800.248C629.316 804.036 627.875 805 623 805C618.464 805 617.195 804.165 614.325 800.997L612.947 799.452C610.316 796.484 606.333 793 601 789C607.114 790.333 614.447 791 623 791C631.553 791 638.886 790.333 645 789Z" fill="black"/><path d="M679 848L684.276 845.142C683.376 843.481 681.745 842.34 679.876 842.064C678.006 841.788 676.116 842.41 674.774 843.741L679 848ZM692 872L696.022 876.453C698.076 874.597 698.594 871.577 697.276 869.142L692 872ZM690.233 873.596L694.243 878.059C694.247 878.056 694.251 878.052 694.255 878.048L690.233 873.596ZM542.163 899.741L540.218 905.417L540.23 905.421L542.163 899.741ZM540 899L534.192 897.494C533.405 900.53 535.089 903.66 538.056 904.676L540 899ZM547 872L548.897 866.308C547.32 865.782 545.596 865.934 544.136 866.728C542.675 867.521 541.609 868.885 541.192 870.494L547 872ZM619 878L618.014 872.082L619 878ZM678.398 848.597L682.607 852.873C682.613 852.867 682.619 852.862 682.624 852.856L678.398 848.597ZM645 789L648.328 793.992C650.728 792.392 651.65 789.311 650.523 786.656C649.396 784.001 646.54 782.523 643.722 783.138L645 789ZM632.747 799.452L637.571 803.019C637.578 803.01 637.584 803.001 637.591 802.992L632.747 799.452ZM632.158 800.248L636.958 803.848C636.966 803.837 636.975 803.826 636.983 803.815L632.158 800.248ZM614.325 800.997L609.847 804.99C609.857 805.002 609.867 805.014 609.878 805.025L614.325 800.997ZM612.947 799.452L608.457 803.432C608.461 803.436 608.465 803.44 608.468 803.445L612.947 799.452ZM601 789L602.278 783.138C599.521 782.537 596.718 783.938 595.544 786.504C594.37 789.07 595.143 792.107 597.4 793.8L601 789ZM673.724 850.858L686.724 874.858L697.276 869.142L684.276 845.142L673.724 850.858ZM687.978 867.547L686.212 869.143L694.255 878.048L696.022 876.453L687.978 867.547ZM686.224 869.132C672.028 881.884 659.389 891.522 648.291 898.16C637.14 904.828 627.882 908.263 620.388 909.031L621.612 920.969C631.534 919.951 642.522 915.592 654.45 908.459C666.429 901.295 679.699 891.124 694.243 878.059L686.224 869.132ZM620.388 909.031C604.354 910.676 579.135 905.985 544.096 894.061L540.23 905.421C575.475 917.415 602.814 922.897 621.612 920.969L620.388 909.031ZM544.107 894.065L541.944 893.324L538.056 904.676L540.218 905.417L544.107 894.065ZM545.808 900.506L552.808 873.506L541.192 870.494L534.192 897.494L545.808 900.506ZM545.103 877.692C569.993 885.989 594.982 888.086 619.986 883.918L618.014 872.082C595.018 875.914 572.007 874.011 548.897 866.308L545.103 877.692ZM619.986 883.918C644.805 879.782 665.76 869.459 682.607 852.873L674.189 844.321C659.239 859.04 640.595 868.318 618.014 872.082L619.986 883.918ZM682.624 852.856L683.226 852.259L674.774 843.741L674.172 844.338L682.624 852.856ZM641.672 784.008C635.538 788.097 630.719 792.058 627.902 795.911L637.591 802.992C639.112 800.91 642.462 797.903 648.328 793.992L641.672 784.008ZM627.922 795.885L627.334 796.68L636.983 803.815L637.571 803.019L627.922 795.885ZM627.358 796.647C625.965 798.505 625.563 798.726 625.493 798.763C625.482 798.77 625.459 798.781 625.408 798.798C625.353 798.816 625.247 798.847 625.066 798.878C624.676 798.945 624.052 799 623 799V811C625.71 811 628.521 810.765 631.19 809.325C633.77 807.934 635.51 805.779 636.958 803.848L627.358 796.647ZM623 799C622.022 799 621.442 798.953 621.079 798.895C620.76 798.844 620.669 798.794 620.662 798.791C620.57 798.746 620.215 798.562 618.772 796.969L609.878 805.025C611.305 806.6 613.019 808.418 615.413 809.582C617.903 810.794 620.467 811 623 811V799ZM618.803 797.004L617.425 795.458L608.468 803.445L609.847 804.99L618.803 797.004ZM617.436 795.471C614.417 792.066 610.07 788.303 604.6 784.2L597.4 793.8C602.596 797.697 606.214 800.902 608.457 803.432L617.436 795.471ZM599.722 794.862C606.376 796.314 614.162 797 623 797V785C614.732 785 607.851 784.353 602.278 783.138L599.722 794.862ZM623 797C631.838 797 639.624 796.314 646.278 794.862L643.722 783.138C638.149 784.353 631.268 785 623 785V797Z" fill="black"/></g></g>      </g>        </g>        </svg>