<svg xmlns="http://www.w3.org/2000/svg" fill="none" viewBox="0 0 1080 1080" width="1080" height="1080"><g id="notion-avatar-face" fill="#fff"><title>Face/ 1</title><g stroke-linecap="round" stroke-linejoin="round"><path id="Path" d="m532 379c132.55 0 240 107.45 240 240s-107.45 260-240 260c-96.867 0-180.33-77.388-218.25-160.02l-0.42983 0.008707-1.3229 0.010718c-44.183 0-80-35.817-80-80 0-39.865 29.159-72.92 67.312-78.999 26.287-104.02 120.5-181 232.69-181zm-236.14 245.55 8.2822 30.91" stroke="#000" stroke-width="24"/></g></g><g id="notion-avatar-nose"><title>Nose/ 4</title><g fill="none" stroke-linecap="round" stroke-linejoin="round"><path id="Line" transform="translate(649.36 647.94) rotate(1.0323) translate(-649.36 -647.94)" d="m636.84 596c24.816 41.453 36.434 70.226 34.855 86.319s-16.517 21.124-44.81 15.093" stroke="#000" stroke-width="16"/></g></g><g id="notion-avatar-mouth"><title>Mouth/ 0</title><g fill="none" stroke-linecap="round" stroke-linejoin="round"><path d="m549 759c27.33 6.6667 50.664 10 70 10s36.003-3.3333 50-10" stroke="#000" stroke-width="16"/></g></g><g id="notion-avatar-eyes"><title>Eyes/ 0</title><g fill="none"><path d="m570 516c13.255 0 24 10.745 24 24s-10.745 24-24 24-24-10.745-24-24 10.745-24 24-24zm138 0c13.255 0 24 10.745 24 24s-10.745 24-24 24-24-10.745-24-24 10.745-24 24-24z" fill="#000"/></g></g><g id="notion-avatar-eyebrows"><title>Eyebrows/ 2</title><g fill="none" stroke-linecap="round" stroke-linejoin="round"><path d="m570 485.72c20.574 3.0771 35.574 9.2464 45 18.508-15-5.6085-30-8.4127-45-8.4127s-33.333 2.8042-55 8.4127l10-13.46c9.4256-6.4422 24.426-8.1247 45-5.0476zm138 0c20.574-3.0771 35.574-1.3946 45 5.0476l10 13.46c-21.667-5.6085-40-8.4127-55-8.4127s-30 2.8042-45 8.4127c9.4256-9.2616 24.426-15.431 45-18.508z" fill="#000" stroke="#000" stroke-width="16"/></g></g><g id="notion-avatar-hair"><path d="m382 274c47.76-29.654 112.39-32.593 193.89-8.819l1.251-0.531c20.689-8.701 53.301-18.591 99.861 7.35 70 39 77.979 111.1 104 115 18.459 2.766 24.559 48.498 41 90 6.103 15.404 45 25 45 25l-45 19s9.926 10.092 23 18c11.329 6.852 31 31 31 31s-42.208 7.748-48 20c-3.109 6.577 33.405 14.103 44 58 14 58-32.011 138.03-3.048 155.5 13.119 7.911 48 30 48 30s-52.178 51.556-76 45c-36.818-10.132-84-45-84-45s11.456-132.94 7.048-208.5c-3.085-52.897-17.817-110.21-32-132-34.44-52.909-105-106-192-106-66.921 0-71.076 38.463-71.076 38.463-3.806 21.264-3.809 44.483-18.924 76.537-26.226 55.618-118.95 93.505-118.95 122.5s9 30 9 46-12.03 24.357-9 46c2.02 14.428 12.971 87.59 28.951 108.5-27.526 27.867-53.193 45.534-77 53-23.806 7.466-54.473 7.466-92 0 9.306-8.345 15.973-16.011 20-23l0.392-0.692c3.937-7.076 8.474-18.846 13.608-35.308-6.303 6.705-12.636 11.371-19 14-6.364 2.628-15.364 4.295-27 5l2.002-2.436c5.36-6.547 9.518-11.829 12.474-15.847l0.957-1.309c4.818-6.562 9.194-11.708 6.567-22.408-2.704-11.019-37.428-109.63-35.951-142.5 0.985-21.912 11.651-54.246 32-97-3.464 3.873-7.464 6.873-12 9-4.537 2.126-11.203 4.126-20 6l1.24-1.105c10.831-9.688 18.418-17.654 22.76-23.895 4.506-6.478 7.172-13.478 8-21-6.195 1.809-11.195 2.475-15 2-3.806-0.476-9.472-2.476-17-6l1.295-0.616c8.519-4.069 14.754-7.531 18.705-10.384 4.148-2.997 9.482-7.997 16-15l1.171-2.536c19.055-41.154 34.331-69.308 45.829-84.464 32.149-42.379 66.672-68.097 96-90 16.21-12.107 24.667-36.257 37.951-44.505z" clip-rule="evenodd" fill="#000" stroke="#000" stroke-linecap="round" stroke-linejoin="round" stroke-width="12"/></g></svg>